M48
; DRILL file {KiCad 9.0.0} date 2025-03-06T14:03:21+0900
; FORMAT={-:-/ absolute / metric / decimal}
; #@! TF.CreationDate,2025-03-06T14:03:21+09:00
; #@! TF.GenerationSoftware,Kicad,Pcbnew,9.0.0
; #@! TF.FileFunction,MixedPlating,1,2
FMAT,2
METRIC
; #@! TA.AperFunction,Plated,PTH,ComponentDrill
T1C0.800
; #@! TA.AperFunction,Plated,PTH,ComponentDrill
T2C0.900
; #@! TA.AperFunction,Plated,PTH,ViaDrill
T3C1.000
; #@! TA.AperFunction,Plated,PTH,ComponentDrill
T4C1.000
; #@! TA.AperFunction,Plated,PTH,ComponentDrill
T5C1.500
; #@! TA.AperFunction,Plated,PTH,ComponentDrill
T6C2.000
; #@! TA.AperFunction,NonPlated,NPTH,ComponentDrill
T7C3.200
%
G90
G05
T1
X7.831Y45.623
X8.052Y28.351
X8.528Y34.32
X10.052Y28.351
X10.331Y45.623
X11.028Y34.32
X12.052Y28.351
X12.084Y70.896
X12.084Y8.539
X12.897Y13.441
X14.624Y70.896
X15.397Y13.441
X17.164Y70.896
X18.18Y18.833
X18.688Y42.321
X18.688Y39.781
X18.688Y37.241
X18.688Y34.701
X18.688Y32.161
X19.704Y70.896
X20.72Y18.833
X22.244Y70.896
X23.26Y18.833
X25.8Y18.833
X26.308Y42.321
X26.308Y39.781
X26.308Y37.241
X26.308Y34.701
X26.308Y32.161
X27.324Y8.539
X28.34Y18.833
X34.741Y66.883
X40.5Y47.02
X41.86Y51.65
X42.0Y56.0
X43.58Y30.47
X43.58Y25.47
X44.4Y51.65
X45.5Y47.02
X46.94Y51.65
X47.0Y56.0
X49.48Y51.65
X49.981Y66.883
X51.2Y26.827
X51.2Y22.509
X51.454Y17.937
X52.02Y51.65
X54.56Y51.65
X57.1Y51.65
X59.64Y51.65
X65.17Y35.082
X65.17Y30.082
X66.44Y26.827
X66.44Y22.509
X66.694Y17.937
X73.5Y22.12
X73.5Y6.88
X77.0Y71.62
X77.0Y56.38
X78.5Y24.12
X78.5Y8.88
X81.5Y43.5
X83.752Y66.959
X84.0Y38.5
X86.5Y43.5
X88.752Y66.959
X89.0Y38.5
T2
X5.988Y22.763
X16.148Y22.763
X59.582Y71.531
X59.582Y68.991
X65.678Y71.531
X68.218Y71.531
X88.03Y12.476
X88.03Y11.206
X88.03Y9.936
X88.03Y8.666
T3
X17.511Y47.988
X26.816Y70.388
X26.816Y65.359
X27.0Y48.0
X30.88Y22.25
X31.5Y43.5
X31.5Y41.0
X34.055Y58.069
X42.0Y58.069
X43.326Y41.0
X43.58Y22.0
X46.0Y43.5
X47.39Y72.285
X47.39Y59.0
X53.25Y48.605
X53.25Y43.525
X59.5Y47.75
X59.5Y42.25
X83.5Y10.75
X83.5Y4.5
T4
X6.479Y15.885
X6.479Y13.385
X9.036Y62.728
X9.036Y60.228
X9.29Y54.005
X9.29Y51.505
X15.132Y65.689
X15.132Y63.149
X15.132Y60.609
X15.132Y58.069
X15.132Y55.529
X15.132Y52.989
X15.132Y50.449
X15.132Y47.909
X30.372Y65.689
X30.372Y63.149
X30.372Y60.609
X30.372Y58.069
X30.372Y55.529
X30.372Y52.989
X30.372Y50.449
X30.372Y47.909
X34.507Y72.285
X37.007Y72.285
X40.786Y37.495
X40.786Y34.955
X40.786Y9.555
X40.786Y7.015
X43.326Y37.495
X43.326Y34.955
X43.326Y9.555
X43.326Y7.015
X45.866Y37.495
X45.866Y34.955
X45.866Y9.555
X45.866Y7.015
X48.406Y37.495
X48.406Y34.955
X48.406Y9.555
X48.406Y7.015
X50.946Y37.495
X50.946Y34.955
X50.946Y9.555
X50.946Y7.015
X53.486Y37.495
X53.486Y34.955
X53.486Y9.555
X53.486Y7.015
X56.026Y37.495
X56.026Y34.955
X56.026Y9.555
X56.026Y7.015
X58.566Y37.495
X58.566Y34.955
X58.566Y9.555
X58.566Y7.015
X61.106Y37.495
X61.106Y34.955
X61.106Y9.555
X61.106Y7.015
X68.0Y61.3
X68.0Y53.7
X71.508Y32.813
X71.508Y30.273
X71.508Y27.733
X71.508Y25.193
X83.752Y63.541
X83.752Y49.041
X86.252Y49.041
X88.752Y63.541
X88.752Y49.041
T5
X5.952Y28.351
X14.152Y28.351
T7
X5.94Y71.96
X5.94Y5.96
X94.94Y71.96
X94.94Y5.96
T6
G00X80.652Y56.291
M15
G01X80.652Y56.791
M16
G05
G00X91.852Y56.291
M15
G01X91.852Y56.791
M16
G05
M30
